<svg width="120" height="38" viewBox="0 0 120 38" fill="none" xmlns="http://www.w3.org/2000/svg">
<g filter="url(#filter0_d_13_2)">
<path fill-rule="evenodd" clip-rule="evenodd" d="M35.4777 27.9594L36.66 26.8324L40.94 22.7524L42.7202 21.0554L44.0186 23.1441C44.9372 24.6219 45.9794 25.16 47.24 25.16C48.0826 25.16 48.5738 24.9288 48.9104 24.6125C49.2823 24.2631 49.6757 23.6093 49.9186 22.4087C49.9189 22.4072 49.9192 22.4058 49.9195 22.4043L52.1274 11.2H44.76H42.3204L42.7988 8.80777L43.8388 3.60777L44.1604 2H45.8H59.0014H61.5206H62.04H64.4827H68.2006H69.7984L70.1512 3.55828L73.6097 18.8306L83.7125 2.92756L84.3017 2H85.4006H89.6188H91.2584H92.1206H95.7532H102.658C106.393 2 109.586 2.81647 111.98 4.71191C114.442 6.66076 115.618 9.40666 115.618 12.68C115.618 15.6759 114.8 18.3529 113.093 20.6073C111.873 22.2189 110.324 23.4691 108.487 24.372L112.24 31.0164L113.925 34H110.498H103.658H102.487L101.914 32.9788L98.0874 26.16H95.3797L94.14 32.3903L93.8197 34H92.1784H85.6584H83.2188L83.6973 31.6078L86.7845 16.1718L76.0906 33.0695L75.5018 34H74.4006H68.0406H66.4528L66.0927 32.4536L61.9413 14.6252L60.282 22.868C59.5453 26.6599 58.1545 29.7228 55.8579 31.6817C53.5832 33.6219 50.6064 34.48 47.16 34.48C44.8061 34.48 42.6646 34.083 40.7959 33.2132C38.9224 32.341 37.4173 31.0506 36.3459 29.343L35.4777 27.9594ZM58.32 22.48L60.8471 9.92617L61.6374 6L61.7992 5.19629L61.9863 6L62.8934 9.89533L68.0406 32H74.4006L87.8781 10.7038L90.8549 6L90.8601 5.99186L90.8584 6L89.7665 11.4598L86.0584 30L85.6584 32H87.698H92.1784L93.7384 24.16H99.2584L103.658 32H108.201H110.498L109.369 30L106.622 25.1374L105.618 23.36C106.285 23.1544 106.913 22.9102 107.502 22.6274C109.129 21.8462 110.461 20.7704 111.498 19.4C112.912 17.5333 113.618 15.2933 113.618 12.68C113.618 9.93333 112.658 7.8 110.738 6.28C108.818 4.76 106.125 4 102.658 4H94.4875H92.1206H91.2584H89.7538H89.2188H85.4006L74.2324 21.5803L72.7206 23.96L72.098 21.2103L68.2006 4H64.0801H63.5741H62.04H61.5206H59.9999H59.4671H45.8L45.16 7.2L44.76 9.2H46.7996H52.5215H54.56L54.1659 11.2L51.88 22.8C51.2933 25.7067 49.7467 27.16 47.24 27.16C45.826 27.16 44.608 26.6921 43.586 25.7563C43.1239 25.3332 42.7019 24.8144 42.32 24.2L40.8472 25.604L38.04 28.28C38.8933 29.64 40.0933 30.68 41.64 31.4C43.1867 32.12 45.0267 32.48 47.16 32.48C50.28 32.48 52.7467 31.7067 54.56 30.16C56.3733 28.6133 57.6267 26.0533 58.32 22.48ZM103.98 15.9822L103.988 15.9751C104.639 15.4399 105.058 14.6443 105.058 13.28C105.058 12.4497 104.809 12.1086 104.514 11.8913C104.082 11.5741 103.272 11.28 101.818 11.28H98.3354L97.182 17H100.258C102.138 17 103.281 16.5696 103.971 15.9893L103.98 15.9822ZM96.7787 19H94.7384L95.1417 17L96.6984 9.28H101.818C103.498 9.28 104.792 9.61333 105.698 10.28C106.605 10.9467 107.058 11.9467 107.058 13.28C107.058 15.12 106.458 16.5333 105.258 17.52C104.085 18.5067 102.418 19 100.258 19H96.7787Z" fill="url(#paint0_linear_13_2)"/>
<path d="M36.66 26.8324L36.5565 26.7238L36.5565 26.7238L36.66 26.8324ZM35.4777 27.9594L35.3742 27.8508L35.2856 27.9354L35.3507 28.0391L35.4777 27.9594ZM40.94 22.7524L41.0435 22.8609L41.0435 22.8609L40.94 22.7524ZM42.7202 21.0554L42.8476 20.9762L42.7502 20.8196L42.6167 20.9468L42.7202 21.0554ZM44.0186 23.1441L44.146 23.0649L44.146 23.0649L44.0186 23.1441ZM48.9104 24.6125L48.8077 24.5032L48.8077 24.5032L48.9104 24.6125ZM49.9186 22.4087L50.0657 22.4384L50.0657 22.4384L49.9186 22.4087ZM49.9195 22.4043L50.0666 22.434L50.0667 22.4333L49.9195 22.4043ZM52.1274 11.2L52.2746 11.229L52.3099 11.05H52.1274V11.2ZM42.3204 11.2L42.1733 11.1706L42.1374 11.35H42.3204V11.2ZM42.7988 8.80777L42.9459 8.83718L42.9459 8.83718L42.7988 8.80777ZM43.8388 3.60777L43.6918 3.57835L43.8388 3.60777ZM44.1604 2V1.85H44.0374L44.0133 1.97058L44.1604 2ZM69.7984 2L69.9447 1.96687L69.9182 1.85H69.7984V2ZM70.1512 3.55828L70.2975 3.52515L70.2975 3.52515L70.1512 3.55828ZM73.6097 18.8306L73.4634 18.8638L73.543 19.2153L73.7363 18.9111L73.6097 18.8306ZM83.7125 2.92756L83.8391 3.00799L83.8391 3.00799L83.7125 2.92756ZM84.3017 2V1.85H84.2193L84.1751 1.91956L84.3017 2ZM111.98 4.71191L111.887 4.82951L111.887 4.82951L111.98 4.71191ZM113.093 20.6073L112.973 20.5167L112.973 20.5167L113.093 20.6073ZM108.487 24.372L108.421 24.2374L108.278 24.3075L108.356 24.4458L108.487 24.372ZM112.24 31.0164L112.109 31.0902L112.109 31.0902L112.24 31.0164ZM113.925 34V34.15H114.182L114.056 33.9262L113.925 34ZM102.487 34L102.357 34.0734L102.4 34.15H102.487V34ZM101.914 32.9788L101.784 33.0522L101.784 33.0522L101.914 32.9788ZM98.0874 26.16L98.2182 26.0866L98.1753 26.01H98.0874V26.16ZM95.3797 26.16V26.01H95.2566L95.2326 26.1307L95.3797 26.16ZM94.14 32.3903L93.9929 32.361L93.9929 32.361L94.14 32.3903ZM93.8197 34V34.15H93.9428L93.9668 34.0293L93.8197 34ZM83.2188 34L83.0717 33.9706L83.0359 34.15H83.2188V34ZM83.6973 31.6078L83.8444 31.6372L83.8444 31.6372L83.6973 31.6078ZM86.7845 16.1718L86.9316 16.2012L86.6577 16.0916L86.7845 16.1718ZM76.0906 33.0695L75.9639 32.9893L75.9639 32.9893L76.0906 33.0695ZM75.5018 34V34.15H75.5844L75.6285 34.0802L75.5018 34ZM66.4528 34L66.3067 34.034L66.3337 34.15H66.4528V34ZM66.0927 32.4536L66.2388 32.4196L66.2388 32.4196L66.0927 32.4536ZM61.9413 14.6252L62.0874 14.5912L61.7942 14.5956L61.9413 14.6252ZM60.282 22.868L60.135 22.8384L60.1348 22.8394L60.282 22.868ZM55.8579 31.6817L55.7606 31.5675L55.7605 31.5675L55.8579 31.6817ZM40.7959 33.2132L40.7326 33.3492L40.7326 33.3492L40.7959 33.2132ZM36.3459 29.343L36.4729 29.2633L36.3459 29.343ZM60.8471 9.92617L60.9941 9.95577L60.9941 9.95577L60.8471 9.92617ZM58.32 22.48L58.1729 22.4504L58.1727 22.4514L58.32 22.48ZM61.6374 6L61.7845 6.0296L61.7845 6.0296L61.6374 6ZM61.7992 5.19629L61.9453 5.16227L61.6521 5.16669L61.7992 5.19629ZM61.9863 6L61.8402 6.03402L61.8402 6.03402L61.9863 6ZM62.8934 9.89533L62.7473 9.92935L62.7473 9.92935L62.8934 9.89533ZM68.0406 32L67.8945 32.034L67.9215 32.15H68.0406V32ZM74.4006 32V32.15H74.4832L74.5274 32.0802L74.4006 32ZM87.8781 10.7038L87.7513 10.6236L87.7513 10.6236L87.8781 10.7038ZM90.8549 6L90.9817 6.08021L90.9817 6.08018L90.8549 6ZM90.8601 5.99186L91.0071 6.02128L90.7333 5.91167L90.8601 5.99186ZM90.8584 6L90.7113 5.97057L90.7113 5.97058L90.8584 6ZM89.7665 11.4598L89.9136 11.4893L89.9136 11.4893L89.7665 11.4598ZM86.0584 30L86.2055 30.0294L86.2055 30.0294L86.0584 30ZM85.6584 32L85.5113 31.9706L85.4755 32.15H85.6584V32ZM92.1784 32V32.15H92.3015L92.3256 32.0293L92.1784 32ZM93.7384 24.16V24.01H93.6153L93.5913 24.1307L93.7384 24.16ZM99.2584 24.16L99.3892 24.0866L99.3463 24.01H99.2584V24.16ZM103.658 32L103.528 32.0734L103.571 32.15H103.658V32ZM110.498 32V32.15H110.755L110.629 31.9262L110.498 32ZM109.369 30L109.238 30.0738L109.238 30.0738L109.369 30ZM106.622 25.1374L106.753 25.0636L106.753 25.0636L106.622 25.1374ZM105.618 23.36L105.574 23.2167L105.396 23.2716L105.488 23.4338L105.618 23.36ZM107.502 22.6274L107.437 22.4922L107.437 22.4922L107.502 22.6274ZM111.498 19.4L111.379 19.3095L111.379 19.3095L111.498 19.4ZM110.738 6.28L110.645 6.39761L110.645 6.39761L110.738 6.28ZM85.4006 4V3.85H85.3182L85.274 3.91956L85.4006 4ZM74.2324 21.5803L74.359 21.6607L74.359 21.6607L74.2324 21.5803ZM72.7206 23.96L72.5743 23.9931L72.6539 24.3447L72.8472 24.0404L72.7206 23.96ZM72.098 21.2103L71.9517 21.2435L71.9517 21.2435L72.098 21.2103ZM68.2006 4L68.3469 3.96687L68.3205 3.85H68.2006V4ZM45.8 4V3.85H45.677L45.6529 3.97058L45.8 4ZM45.16 7.2L45.3071 7.22941L45.3071 7.22941L45.16 7.2ZM44.76 9.2L44.6129 9.17058L44.577 9.35H44.76V9.2ZM54.56 9.2L54.7072 9.229L54.7424 9.05H54.56V9.2ZM54.1659 11.2L54.3131 11.229L54.3131 11.229L54.1659 11.2ZM51.88 22.8L52.027 22.8297L52.0272 22.829L51.88 22.8ZM43.586 25.7563L43.4847 25.8669L43.4847 25.8669L43.586 25.7563ZM42.32 24.2L42.4474 24.1208L42.35 23.9642L42.2165 24.0914L42.32 24.2ZM40.8472 25.604L40.9507 25.7126L40.9507 25.7126L40.8472 25.604ZM38.04 28.28L37.9365 28.1714L37.8478 28.256L37.9129 28.3597L38.04 28.28ZM41.64 31.4L41.5767 31.536L41.5767 31.536L41.64 31.4ZM54.56 30.16L54.6573 30.2741L54.6573 30.2741L54.56 30.16ZM103.988 15.9751L104.083 16.091L104.083 16.091L103.988 15.9751ZM103.98 15.9822L103.884 15.8663L103.883 15.8674L103.98 15.9822ZM104.514 11.8913L104.603 11.7704L104.603 11.7704L104.514 11.8913ZM98.3354 11.28V11.13H98.2126L98.1884 11.2503L98.3354 11.28ZM97.182 17L97.0349 16.9703L96.9987 17.15H97.182V17ZM103.971 15.9893L103.875 15.8745L103.875 15.8745L103.971 15.9893ZM94.7384 19L94.5914 18.9703L94.5552 19.15H94.7384V19ZM95.1417 17L95.2888 17.0296L95.2888 17.0296L95.1417 17ZM96.6984 9.28V9.13H96.5757L96.5514 9.25035L96.6984 9.28ZM105.698 10.28L105.787 10.1592L105.787 10.1591L105.698 10.28ZM105.258 17.52L105.163 17.4041L105.162 17.4052L105.258 17.52ZM36.5565 26.7238L35.3742 27.8508L35.5812 28.068L36.7635 26.9409L36.5565 26.7238ZM40.8365 22.6438L36.5565 26.7238L36.7635 26.9409L41.0435 22.8609L40.8365 22.6438ZM42.6167 20.9468L40.8365 22.6438L41.0435 22.8609L42.8237 21.164L42.6167 20.9468ZM44.146 23.0649L42.8476 20.9762L42.5928 21.1346L43.8912 23.2233L44.146 23.0649ZM47.24 25.01C46.6323 25.01 46.0842 24.8807 45.5781 24.5776C45.0708 24.2737 44.5963 23.7894 44.146 23.0649L43.8912 23.2233C44.3595 23.9767 44.8654 24.5003 45.424 24.8349C45.9838 25.1703 46.5871 25.31 47.24 25.31V25.01ZM48.8077 24.5032C48.5037 24.7889 48.0515 25.01 47.24 25.01V25.31C48.1138 25.31 48.644 25.0687 49.0132 24.7218L48.8077 24.5032ZM49.7716 22.3789C49.5325 23.5607 49.1496 24.1819 48.8077 24.5032L49.0132 24.7218C49.415 24.3442 49.8189 23.6579 50.0657 22.4384L49.7716 22.3789ZM49.7725 22.3746C49.7722 22.3761 49.7719 22.3775 49.7716 22.3789L50.0657 22.4384C50.066 22.437 50.0663 22.4355 50.0666 22.434L49.7725 22.3746ZM51.9802 11.171L49.7724 22.3753L50.0667 22.4333L52.2746 11.229L51.9802 11.171ZM44.76 11.35H52.1274V11.05H44.76V11.35ZM42.3204 11.35H44.76V11.05H42.3204V11.35ZM42.6517 8.77835L42.1733 11.1706L42.4675 11.2294L42.9459 8.83718L42.6517 8.77835ZM43.6918 3.57835L42.6517 8.77835L42.9459 8.83718L43.9859 3.63718L43.6918 3.57835ZM44.0133 1.97058L43.6918 3.57835L43.9859 3.63718L44.3075 2.02941L44.0133 1.97058ZM45.8 1.85H44.1604V2.15H45.8V1.85ZM59.0014 1.85H45.8V2.15H59.0014V1.85ZM61.5206 1.85H59.0014V2.15H61.5206V1.85ZM62.04 1.85H61.5206V2.15H62.04V1.85ZM64.4827 1.85H62.04V2.15H64.4827V1.85ZM68.2006 1.85H64.4827V2.15H68.2006V1.85ZM69.7984 1.85H68.2006V2.15H69.7984V1.85ZM70.2975 3.52515L69.9447 1.96687L69.6521 2.03313L70.0049 3.5914L70.2975 3.52515ZM73.756 18.7975L70.2975 3.52515L70.0049 3.5914L73.4634 18.8638L73.756 18.7975ZM83.5859 2.84713L73.4831 18.7502L73.7363 18.9111L83.8391 3.00799L83.5859 2.84713ZM84.1751 1.91956L83.5859 2.84713L83.8391 3.00799L84.4283 2.08043L84.1751 1.91956ZM85.4006 1.85H84.3017V2.15H85.4006V1.85ZM89.6188 1.85H85.4006V2.15H89.6188V1.85ZM91.2584 1.85H89.6188V2.15H91.2584V1.85ZM92.1206 1.85H91.2584V2.15H92.1206V1.85ZM95.7532 1.85H92.1206V2.15H95.7532V1.85ZM102.658 1.85H95.7532V2.15H102.658V1.85ZM112.073 4.5943C109.643 2.67068 106.413 1.85 102.658 1.85V2.15C106.373 2.15 109.528 2.96226 111.887 4.82951L112.073 4.5943ZM115.768 12.68C115.768 9.36726 114.575 6.57537 112.073 4.5943L111.887 4.82951C114.308 6.74614 115.468 9.44605 115.468 12.68H115.768ZM113.213 20.6978C114.941 18.4144 115.768 15.7046 115.768 12.68H115.468C115.468 15.6472 114.658 18.2915 112.973 20.5167L113.213 20.6978ZM108.553 24.5066C110.41 23.594 111.977 22.3291 113.213 20.6978L112.973 20.5167C111.768 22.1087 110.238 23.3443 108.421 24.2374L108.553 24.5066ZM112.37 30.9426L108.618 24.2982L108.356 24.4458L112.109 31.0902L112.37 30.9426ZM114.056 33.9262L112.37 30.9426L112.109 31.0902L113.794 34.0738L114.056 33.9262ZM110.498 34.15H113.925V33.85H110.498V34.15ZM103.658 34.15H110.498V33.85H103.658V34.15ZM102.487 34.15H103.658V33.85H102.487V34.15ZM101.784 33.0522L102.357 34.0734L102.618 33.9266L102.045 32.9054L101.784 33.0522ZM97.9566 26.2334L101.784 33.0522L102.045 32.9054L98.2182 26.0866L97.9566 26.2334ZM95.3797 26.31H98.0874V26.01H95.3797V26.31ZM94.2871 32.4196L95.5268 26.1893L95.2326 26.1307L93.9929 32.361L94.2871 32.4196ZM93.9668 34.0293L94.2871 32.4196L93.9929 32.361L93.6726 33.9707L93.9668 34.0293ZM92.1784 34.15H93.8197V33.85H92.1784V34.15ZM85.6584 34.15H92.1784V33.85H85.6584V34.15ZM83.2188 34.15H85.6584V33.85H83.2188V34.15ZM83.5502 31.5784L83.0717 33.9706L83.3659 34.0294L83.8444 31.6372L83.5502 31.5784ZM86.6374 16.1424L83.5502 31.5784L83.8444 31.6372L86.9316 16.2012L86.6374 16.1424ZM76.2174 33.1497L86.9112 16.252L86.6577 16.0916L75.9639 32.9893L76.2174 33.1497ZM75.6285 34.0802L76.2174 33.1497L75.9639 32.9893L75.375 33.9198L75.6285 34.0802ZM74.4006 34.15H75.5018V33.85H74.4006V34.15ZM68.0406 34.15H74.4006V33.85H68.0406V34.15ZM66.4528 34.15H68.0406V33.85H66.4528V34.15ZM65.9466 32.4876L66.3067 34.034L66.5989 33.966L66.2388 32.4196L65.9466 32.4876ZM61.7952 14.6592L65.9466 32.4876L66.2388 32.4196L62.0874 14.5912L61.7952 14.6592ZM60.4291 22.8976L62.0883 14.6548L61.7942 14.5956L60.135 22.8384L60.4291 22.8976ZM55.9552 31.7958C58.2882 29.8059 59.6893 26.7051 60.4293 22.8967L60.1348 22.8394C59.4013 26.6147 58.0208 29.6397 55.7606 31.5675L55.9552 31.7958ZM47.16 34.63C50.6308 34.63 53.6459 33.7655 55.9552 31.7958L55.7605 31.5675C53.5205 33.4782 50.5819 34.33 47.16 34.33V34.63ZM40.7326 33.3492C42.6254 34.2303 44.7895 34.63 47.16 34.63V34.33C44.8226 34.33 42.7037 33.9358 40.8592 33.0772L40.7326 33.3492ZM36.2188 29.4227C37.3066 31.1564 38.8346 32.4656 40.7326 33.3492L40.8592 33.0772C39.0102 32.2164 37.528 30.9448 36.4729 29.2633L36.2188 29.4227ZM35.3507 28.0391L36.2188 29.4227L36.4729 29.2633L35.6048 27.8797L35.3507 28.0391ZM60.7 9.89657L58.1729 22.4504L58.467 22.5096L60.9941 9.95577L60.7 9.89657ZM61.4904 5.9704L60.7 9.89657L60.9941 9.95577L61.7845 6.0296L61.4904 5.9704ZM61.6521 5.16669L61.4904 5.9704L61.7845 6.0296L61.9462 5.22589L61.6521 5.16669ZM62.1324 5.96598L61.9453 5.16227L61.6531 5.23031L61.8402 6.03402L62.1324 5.96598ZM63.0395 9.86131L62.1324 5.96598L61.8402 6.03402L62.7473 9.92935L63.0395 9.86131ZM68.1867 31.966L63.0395 9.86131L62.7473 9.92935L67.8945 32.034L68.1867 31.966ZM74.4006 31.85H68.0406V32.15H74.4006V31.85ZM87.7513 10.6236L74.2739 31.9198L74.5274 32.0802L88.0048 10.784L87.7513 10.6236ZM90.7282 5.91978L87.7513 10.6236L88.0048 10.784L90.9817 6.08021L90.7282 5.91978ZM90.7333 5.91167L90.7281 5.91981L90.9817 6.08018L90.9868 6.07204L90.7333 5.91167ZM91.0055 6.02942L91.0071 6.02128L90.713 5.96243L90.7113 5.97057L91.0055 6.02942ZM89.9136 11.4893L91.0055 6.02941L90.7113 5.97058L89.6194 11.4304L89.9136 11.4893ZM86.2055 30.0294L89.9136 11.4893L89.6194 11.4304L85.9113 29.9706L86.2055 30.0294ZM85.8055 32.0294L86.2055 30.0294L85.9113 29.9706L85.5113 31.9706L85.8055 32.0294ZM87.698 31.85H85.6584V32.15H87.698V31.85ZM92.1784 31.85H87.698V32.15H92.1784V31.85ZM93.5913 24.1307L92.0313 31.9707L92.3256 32.0293L93.8856 24.1893L93.5913 24.1307ZM99.2584 24.01H93.7384V24.31H99.2584V24.01ZM103.789 31.9266L99.3892 24.0866L99.1276 24.2334L103.528 32.0734L103.789 31.9266ZM108.201 31.85H103.658V32.15H108.201V31.85ZM110.498 31.85H108.201V32.15H110.498V31.85ZM109.238 30.0738L110.368 32.0738L110.629 31.9262L109.499 29.9262L109.238 30.0738ZM106.492 25.2112L109.238 30.0738L109.499 29.9262L106.753 25.0636L106.492 25.2112ZM105.488 23.4338L106.492 25.2112L106.753 25.0636L105.749 23.2862L105.488 23.4338ZM107.437 22.4922C106.855 22.7716 106.234 23.0131 105.574 23.2167L105.663 23.5033C106.336 23.2957 106.97 23.0489 107.567 22.7626L107.437 22.4922ZM111.379 19.3095C110.356 20.6599 109.043 21.7208 107.437 22.4922L107.567 22.7626C109.214 21.9717 110.565 20.881 111.618 19.4905L111.379 19.3095ZM113.468 12.68C113.468 15.2646 112.77 17.4719 111.379 19.3095L111.618 19.4905C113.053 17.5948 113.768 15.322 113.768 12.68H113.468ZM110.645 6.39761C112.525 7.88544 113.468 9.97283 113.468 12.68H113.768C113.768 9.89383 112.792 7.71456 110.832 6.16239L110.645 6.39761ZM102.658 4.15C106.105 4.15 108.761 4.90576 110.645 6.39761L110.832 6.16239C108.876 4.61423 106.145 3.85 102.658 3.85V4.15ZM94.4875 4.15H102.658V3.85H94.4875V4.15ZM92.1206 4.15H94.4875V3.85H92.1206V4.15ZM91.2584 4.15H92.1206V3.85H91.2584V4.15ZM89.7538 4.15H91.2584V3.85H89.7538V4.15ZM89.2188 4.15H89.7538V3.85H89.2188V4.15ZM85.4006 4.15H89.2188V3.85H85.4006V4.15ZM74.359 21.6607L85.5272 4.08043L85.274 3.91956L74.1058 21.4999L74.359 21.6607ZM72.8472 24.0404L74.359 21.6607L74.1058 21.4999L72.594 23.8796L72.8472 24.0404ZM71.9517 21.2435L72.5743 23.9931L72.8669 23.9269L72.2443 21.1772L71.9517 21.2435ZM68.0543 4.03313L71.9517 21.2435L72.2443 21.1772L68.3469 3.96687L68.0543 4.03313ZM64.0801 4.15H68.2006V3.85H64.0801V4.15ZM63.5741 4.15H64.0801V3.85H63.5741V4.15ZM62.04 4.15H63.5741V3.85H62.04V4.15ZM61.5206 4.15H62.04V3.85H61.5206V4.15ZM59.9999 4.15H61.5206V3.85H59.9999V4.15ZM59.4671 4.15H59.9999V3.85H59.4671V4.15ZM45.8 4.15H59.4671V3.85H45.8V4.15ZM45.3071 7.22941L45.9471 4.02941L45.6529 3.97058L45.0129 7.17058L45.3071 7.22941ZM44.9071 9.22941L45.3071 7.22941L45.0129 7.17058L44.6129 9.17058L44.9071 9.22941ZM46.7996 9.05H44.76V9.35H46.7996V9.05ZM52.5215 9.05H46.7996V9.35H52.5215V9.05ZM54.56 9.05H52.5215V9.35H54.56V9.05ZM54.3131 11.229L54.7072 9.229L54.4128 9.17099L54.0187 11.171L54.3131 11.229ZM52.0272 22.829L54.3131 11.229L54.0187 11.171L51.7328 22.771L52.0272 22.829ZM47.24 27.31C48.5241 27.31 49.5766 26.9368 50.3827 26.1793C51.1861 25.4244 51.7299 24.3018 52.027 22.8297L51.733 22.7703C51.4434 24.2049 50.9205 25.2623 50.1773 25.9607C49.4367 26.6566 48.4625 27.01 47.24 27.01V27.31ZM43.4847 25.8669C44.535 26.8286 45.7893 27.31 47.24 27.31V27.01C45.8626 27.01 44.681 26.5556 43.6873 25.6457L43.4847 25.8669ZM42.1926 24.2792C42.5807 24.9035 43.0111 25.4333 43.4847 25.8669L43.6873 25.6457C43.2367 25.2331 42.8232 24.7254 42.4474 24.1208L42.1926 24.2792ZM40.9507 25.7126L42.4235 24.3086L42.2165 24.0914L40.7437 25.4954L40.9507 25.7126ZM38.1435 28.3886L40.9507 25.7126L40.7437 25.4954L37.9365 28.1714L38.1435 28.3886ZM41.7033 31.264C40.1811 30.5554 39.004 29.5342 38.1671 28.2003L37.9129 28.3597C38.7826 29.7458 40.0055 30.8046 41.5767 31.536L41.7033 31.264ZM47.16 32.33C45.0432 32.33 43.2258 31.9728 41.7033 31.264L41.5767 31.536C43.1475 32.2672 45.0101 32.63 47.16 32.63V32.33ZM54.4627 30.0459C52.6839 31.563 50.2555 32.33 47.16 32.33V32.63C50.3045 32.63 52.8094 31.8503 54.6573 30.2741L54.4627 30.0459ZM58.1727 22.4514C57.4826 26.0081 56.2396 28.5302 54.4627 30.0459L54.6573 30.2741C56.507 28.6965 57.7707 26.0985 58.4673 22.5086L58.1727 22.4514ZM103.893 15.8593L103.884 15.8663L104.075 16.098L104.083 16.091L103.893 15.8593ZM104.908 13.28C104.908 14.6082 104.503 15.3576 103.893 15.8593L104.083 16.091C104.775 15.5221 105.208 14.6804 105.208 13.28H104.908ZM104.425 12.0121C104.557 12.1091 104.674 12.23 104.761 12.4183C104.848 12.6092 104.908 12.8791 104.908 13.28H105.208C105.208 12.8506 105.144 12.5348 105.033 12.2932C104.921 12.0491 104.766 11.8908 104.603 11.7704L104.425 12.0121ZM101.818 11.43C103.255 11.43 104.029 11.7211 104.425 12.0121L104.603 11.7704C104.136 11.4271 103.289 11.13 101.818 11.13V11.43ZM98.3354 11.43H101.818V11.13H98.3354V11.43ZM97.329 17.0296L98.4824 11.3096L98.1884 11.2503L97.0349 16.9703L97.329 17.0296ZM100.258 16.85H97.182V17.15H100.258V16.85ZM103.875 15.8745C103.221 16.4244 102.116 16.85 100.258 16.85V17.15C102.159 17.15 103.342 16.7148 104.068 16.1041L103.875 15.8745ZM103.883 15.8674L103.875 15.8745L104.068 16.1041L104.076 16.097L103.883 15.8674ZM94.7384 19.15H96.7787V18.85H94.7384V19.15ZM94.9947 16.9703L94.5914 18.9703L94.8855 19.0296L95.2888 17.0296L94.9947 16.9703ZM96.5514 9.25035L94.9947 16.9703L95.2888 17.0296L96.8455 9.30965L96.5514 9.25035ZM101.818 9.13H96.6984V9.43H101.818V9.13ZM105.787 10.1591C104.845 9.46627 103.515 9.13 101.818 9.13V9.43C103.481 9.43 104.739 9.76039 105.61 10.4008L105.787 10.1591ZM107.208 13.28C107.208 11.9089 106.74 10.8595 105.787 10.1592L105.61 10.4008C106.47 11.0338 106.908 11.9844 106.908 13.28H107.208ZM105.354 17.6359C106.595 16.6153 107.208 15.1557 107.208 13.28H106.908C106.908 15.0843 106.322 16.4513 105.163 17.4041L105.354 17.6359ZM100.258 19.15C102.439 19.15 104.145 18.6519 105.355 17.6348L105.162 17.4052C104.025 18.3614 102.397 18.85 100.258 18.85V19.15ZM96.7787 19.15H100.258V18.85H96.7787V19.15Z" fill="black"/>
<path d="M2 24H36C36.5523 24 37 24.4477 37 25C37 25.5523 36.5523 26 36 26H31.8864H26.7727L2 24Z" fill="url(#paint1_linear_13_2)"/>
<path d="M13 17H47C47.5523 17 48 17.4477 48 18C48 18.5523 47.5523 19 47 19H42.8864H37.7727L13 17Z" fill="url(#paint2_linear_13_2)"/>
<path d="M8 4H42C42.5523 4 43 4.44771 43 5C43 5.55228 42.5523 6 42 6H37.8864H32.7727L8 4Z" fill="url(#paint3_linear_13_2)"/>
<path d="M0 11H34C34.5523 11 35 11.4477 35 12C35 12.5523 34.5523 13 34 13H29.8864H24.7727L0 11Z" fill="url(#paint4_linear_13_2)"/>
</g>
<defs>
<filter id="filter0_d_13_2" x="0" y="0.849998" width="119.768" height="36.78" filterUnits="userSpaceOnUse" color-interpolation-filters="sRGB">
<feFlood flood-opacity="0" result="BackgroundImageFix"/>
<feColorMatrix in="SourceAlpha" type="matrix" values="0 0 0 0 0 0 0 0 0 0 0 0 0 0 0 0 0 0 127 0" result="hardAlpha"/>
<feOffset dx="2" dy="1"/>
<feGaussianBlur stdDeviation="1"/>
<feComposite in2="hardAlpha" operator="out"/>
<feColorMatrix type="matrix" values="0 0 0 0 0 0 0 0 0 0 0 0 0 0 0 0 0 0 0.4 0"/>
<feBlend mode="normal" in2="BackgroundImageFix" result="effect1_dropShadow_13_2"/>
<feBlend mode="normal" in="SourceGraphic" in2="effect1_dropShadow_13_2" result="shape"/>
</filter>
<linearGradient id="paint0_linear_13_2" x1="75.5481" y1="2.01277" x2="75.5481" y2="34.7576" gradientUnits="userSpaceOnUse">
<stop offset="0.11" stop-color="#0096DD"/>
<stop offset="1" stop-color="#010AA3"/>
</linearGradient>
<linearGradient id="paint1_linear_13_2" x1="34.5" y1="24" x2="2" y2="23.5" gradientUnits="userSpaceOnUse">
<stop stop-color="#000955"/>
<stop offset="0.464" stop-color="#0073AA"/>
<stop offset="1" stop-opacity="0"/>
</linearGradient>
<linearGradient id="paint2_linear_13_2" x1="45.5" y1="17" x2="13" y2="16.5" gradientUnits="userSpaceOnUse">
<stop stop-color="#000955"/>
<stop offset="0.464" stop-color="#0073AA"/>
<stop offset="1" stop-opacity="0"/>
</linearGradient>
<linearGradient id="paint3_linear_13_2" x1="40.5" y1="4" x2="8" y2="3.5" gradientUnits="userSpaceOnUse">
<stop stop-color="#000955"/>
<stop offset="0.464" stop-color="#0073AA"/>
<stop offset="1" stop-opacity="0"/>
</linearGradient>
<linearGradient id="paint4_linear_13_2" x1="32.5" y1="11" x2="-1.87049e-07" y2="10.5" gradientUnits="userSpaceOnUse">
<stop stop-color="#000955"/>
<stop offset="0.464" stop-color="#0073AA"/>
<stop offset="1" stop-opacity="0"/>
</linearGradient>
</defs>
</svg>
